<svg xmlns="http://www.w3.org/2000/svg" xmlns:xlink="http://www.w3.org/1999/xlink" width="130" height="40.50629" viewBox="0 0 130 40.50629">
  <defs>
    <linearGradient id="a" y1="20.25315" x2="34.51613" y2="20.25315" gradientUnits="userSpaceOnUse">
      <stop offset="0" stop-color="#f26525"/>
      <stop offset="0.48" stop-color="#f26525"/>
      <stop offset="0.52" stop-color="#ea5324"/>
      <stop offset="1" stop-color="#ea5324"/>
    </linearGradient>
  </defs>
  <title>logo_color</title>
  <g>
    <g>
      <path d="M43.34153,21.73505V8.023h1.31184a1.93413,1.93413,0,0,1,1.93414,1.93414V16.054a8.97275,8.97275,0,0,1,6.2742-2.67455,8.69381,8.69381,0,0,1,8.91569,7.85742,8.552,8.552,0,0,1-8.6649,9.54042C47.44953,30.77731,43.34153,27.26634,43.34153,21.73505Zm3.19232,1.07812a6.17388,6.17388,0,0,0,5.8799,5.21923c3.71752.05746,6.25259-2.36664,6.25259-5.95527a5.72708,5.72708,0,0,0-6.09015-5.95627A5.76119,5.76119,0,0,0,46.53385,22.81317Z" style="fill: #76777a"/>
      <g>
        <path d="M67.19541,13.7219v2.442c2.0424-2.27426,3.25453-2.87706,5.64408-2.87706a13.16442,13.16442,0,0,1,2.07711.1677v3.24508a8.39939,8.39939,0,0,0-2.25069-.30094,5.84224,5.84224,0,0,0-4.25837,1.63885,3.7497,3.7497,0,0,0-1.21213,3.14445v9.03275H63.83674V13.7219Z" style="fill: #76777a"/>
        <path d="M75.715,19.17508a5.57805,5.57805,0,0,1,1.17646-3.31216c1.3857-1.70592,3.87843-2.57612,7.40971-2.57612,2.80517,0,4.84756.4351,6.267,1.37238,1.17742.76864,1.66246,1.90624,1.66246,3.914v7.32588c0,1.60624.41562,2.17457,1.55832,2.141a7.12618,7.12618,0,0,0,.7618-.06708v2.20811a4.99873,4.99873,0,0,1-1.76661.26739c-2.11182,0-3.081-.63541-3.73861-2.4755a9.86642,9.86642,0,0,1-7.30653,2.71029c-4.12048,0-6.64792-1.87363-6.64792-4.9184A4.33092,4.33092,0,0,1,77.688,21.75121c1.24685-.53573,2.00865-.7025,5.57465-1.07052a20.954,20.954,0,0,0,4.43194-.63634,1.61,1.61,0,0,0,1.351-1.63884c0-1.773-1.48888-2.57613-4.60552-2.57613-2.94636,0-4.46458.58244-5.074,2.07558a2.00956,2.00956,0,0,1-1.85589,1.27012Zm13.33055,2.81a32.9731,32.9731,0,0,1-6.54473,1.20468c-3.01249.30093-3.9469.86926-3.9469,2.37488,0,1.67238,1.38474,2.54258,4.12047,2.54258a7.35729,7.35729,0,0,0,5.159-1.67238A3.44873,3.44873,0,0,0,89.04559,23.323Z" style="fill: #76777a"/>
        <path d="M102.68039,30.21469h-.86593a1.98,1.98,0,0,1-1.79663-1.11588L92.75431,13.7219h2.0182A2.96619,2.96619,0,0,1,97.50082,15.469l4.84446,11.06548,5.00658-11.09438a2.96768,2.96768,0,0,1,2.71546-1.71823h1.83422l-7.43142,15.39136A1.98075,1.98075,0,0,1,102.68039,30.21469Z" style="fill: #76777a"/>
        <path d="M114.17672,22.92141c.34619,3.17893,2.83892,5.15225,6.54378,5.15225a5.60027,5.60027,0,0,0,4.66179-1.877,3.00244,3.00244,0,0,1,2.35266-1.13424l1.95358,0c-1.69718,3.74726-4.74438,5.58735-9.2795,5.58735-5.6788,0-9.4878-3.44633-9.4878-8.59765,0-5.18579,3.91315-8.76534,9.55723-8.76534,4.08479,0,7.375,1.84009,8.69031,4.91839A11.1421,11.1421,0,0,1,130,22.92141Zm12.39518-2.54165a6.42575,6.42575,0,0,0-12.292,0Z" style="fill: #76777a"/>
      </g>
    </g>
    <g>
      <path d="M33.2733,9.73876l.90662-2.02236a.53055.53055,0,0,0-.10662-.5898L31.67028,4.693A3.82256,3.82256,0,0,0,27.67165,3.763l-.64191.22585L23.42571.0494,17.26619,0h-.01624L11.09042.0494l-3.604,3.93941L6.84448,3.763A3.82257,3.82257,0,0,0,2.84585,4.693L.44283,7.1266a.53057.53057,0,0,0-.10662.5898l.90663,2.02236L0,13.12892.8046,16.185,4.46812,30.11655a7.09639,7.09639,0,0,0,2.74629,3.97591s4.448,3.13742,8.83785,5.98717a2.22657,2.22657,0,0,0,1.20581.42664,2.22654,2.22654,0,0,0,1.2058-.42664c4.38981-2.84975,8.83785-5.98717,8.83785-5.98717A7.09635,7.09635,0,0,0,30.048,30.11655L33.71153,16.185l.8046-3.05608Z" style="fill: url(#a)"/>
      <g>
        <path d="M22.748,27.19068l-2.011-1.04779c-.333-.17351-.88921-.43335-1.236-.57741l-1.09368-.45438a5.22709,5.22709,0,0,0-.71991-.262l-.1462-.0001-.14621.0001a5.22709,5.22709,0,0,0-.71991.262l-1.09368.45438c-.34677.14406-.903.4039-1.236.57741l-2.011,1.04779a.38309.38309,0,0,0-.04788.70946l1.74489,1.23294c.30666.2167.7901.59481,1.07428.84025l.49073.4238c.28419.24545.74689.64974,1.02821.89847l.46547.4115a.64968.64968,0,0,0,.90218,0l.46546-.4115c.28132-.24873.744-.653,1.02821-.89847l.49073-.4238c.28418-.24544.76762-.62355,1.07429-.84025l1.74488-1.23294A.38309.38309,0,0,0,22.748,27.19068Z" style="fill: #f3f3f3"/>
        <path d="M30.70105,12.6402a8.92763,8.92763,0,0,0-.53666-.893l-1.12627-1.66668c-.21026-.31112-.57378-.80595-.80781-1.09959l-1.51918-1.906a5.322,5.322,0,0,0-.45187-.52894.05159.05159,0,0,1-.03026,0c-.00216-.00275-.30564.05292-.67441.1237l-2.32634.44655c-.36877.07079-.82682.15823-1.0179.19433a2.64917,2.64917,0,0,1-.99688-.14495l-1.83662-.59546c-.35721-.11581-.94873-.28-1.31453-.36492a2.68516,2.68516,0,0,0-.52114-.03136,2.68535,2.68535,0,0,0-.52115.03136c-.36579.0849-.95732.24911-1.31453.36492l-1.83662.59546a2.64917,2.64917,0,0,1-.99688.14495c-.19108-.0361-.64913-.12354-1.0179-.19433L9.52776,6.66966c-.36877-.07078-.67225-.12645-.67441-.1237a.05158.05158,0,0,1-.03026,0,5.322,5.322,0,0,0-.45187.52894l-1.51917,1.906c-.234.29364-.59756.78847-.80782,1.09959L4.918,11.74716a8.92955,8.92955,0,0,0-.53666.893,4.0651,4.0651,0,0,0-.15394,1.05543l.05711.18141a2.69511,2.69511,0,0,0,.10456.34257c.23514.29277.63818.756.89561,1.02935l3.9772,4.22338a1.14076,1.14076,0,0,1,.20235,1.126l-.6511,1.541A2.00207,2.00207,0,0,0,8.78278,23.409l.13172.35857a3.44908,3.44908,0,0,0,1.05988,1.48533l.62508.50891a1.18084,1.18084,0,0,0,1.14576.13729L13.965,24.841a5.64318,5.64318,0,0,0,1.12319-.75116l1.77841-1.60474a.71151.71151,0,0,0,.03594-1.02169l-4.01133-2.70328a.77666.77666,0,0,1-.24551-.98431l1.5559-2.92476a1.51994,1.51994,0,0,0,.07553-1.1621,1.77414,1.77414,0,0,0-.88383-.80058L8.5171,11.04677c-.35128-.13267-.33285-.2702.041-.30563l2.863-.27129a4.41828,4.41828,0,0,1,1.33737.1189l2.49374.6951a.76418.76418,0,0,1,.5347.85489l-.97925,5.34765a2.7651,2.7651,0,0,0-.04906.90259c.04066.12706.3744.29509.74165.3734l1.51807.32372a2.55391,2.55391,0,0,0,1.04567,0l1.51807-.32372c.36725-.07831.701-.24634.74165-.3734a2.765,2.765,0,0,0-.04905-.90259l-.97925-5.34765a.76416.76416,0,0,1,.53469-.85489l2.49374-.6951a4.41828,4.41828,0,0,1,1.33737-.1189l2.863.27129c.37383.03543.39227.173.041.30563l-4.87617,1.84165a1.77418,1.77418,0,0,0-.88383.80058,1.52,1.52,0,0,0,.07554,1.1621l1.55589,2.92476a.77666.77666,0,0,1-.24551.98431l-4.01133,2.70328a.71151.71151,0,0,0,.03594,1.02169l1.77841,1.60474a5.64318,5.64318,0,0,0,1.12319.75116l2.21975,1.0581a1.18083,1.18083,0,0,0,1.14576-.13729l.62508-.50891a3.449,3.449,0,0,0,1.05988-1.48533l.13173-.35857a2.00221,2.00221,0,0,0-.03031-1.26978l-.65111-1.541a1.14076,1.14076,0,0,1,.20235-1.126l3.9772-4.22338c.25743-.27339.66047-.73658.89561-1.02935a2.69511,2.69511,0,0,0,.10456-.34257l.05711-.18141A4.0651,4.0651,0,0,0,30.70105,12.6402Z" style="fill: #f3f3f3"/>
      </g>
      <path d="M8.54,6.546a.05158.05158,0,0,0,.03026,0c.00216-.00275.30564.05292.67441.1237l2.32634.44655c.36877.07079.82682.15823,1.0179.19433a2.64917,2.64917,0,0,0,.99688-.14495l1.83662-.59546c.35721-.11581.94874-.28,1.31453-.36492a2.68535,2.68535,0,0,1,.52115-.03136,2.68516,2.68516,0,0,1,.52114.03136c.3658.0849.95732.24911,1.31453.36492l1.83662.59546a2.64917,2.64917,0,0,0,.99688.14495c.19108-.0361.64913-.12354,1.0179-.19433l2.32634-.44655c.36877-.07078.67225-.12645.67441-.1237a.05159.05159,0,0,0,.03026,0C29.2169,3.5906,31.67028,4.693,31.67028,4.693A3.82256,3.82256,0,0,0,27.67165,3.763l-.64191.22585L23.42571.04939,17.26619,0h-.01624L11.09042.04939,7.48639,3.9888,6.84448,3.763A3.82257,3.82257,0,0,0,2.84585,4.693S5.29923,3.5906,8.54,6.546Z" style="fill: #f15b2f"/>
    </g>
  </g>
</svg>